name GIL08_free1.mot
datacolumns 153
datarows 4
range 0.67500001 0.69999999
endheader

                time	           pelvis_tx	           pelvis_ty	           pelvis_tz	         pelvis_tilt	         pelvis_list	     pelvis_rotation	       hip_flexion_r	     hip_adduction_r	      hip_rotation_r	        knee_angle_r	       ankle_angle_r	    subtalar_angle_r	         mtp_angle_r	       hip_flexion_l	     hip_adduction_l	      hip_rotation_l	        knee_angle_l	       ankle_angle_l	    subtalar_angle_l	         mtp_angle_l	    lumbar_extension	      lumbar_bending	     lumbar_rotation	     ground_force_vx	     ground_force_vy	     ground_force_vz	     ground_force_px	     ground_force_py	     ground_force_pz	     ground_force_vx	     ground_force_vy	     ground_force_vz	     ground_force_px	     ground_force_py	     ground_force_pz	     ground_torque_x	     ground_torque_y	     ground_torque_z	     ground_torque_x	     ground_torque_y	     ground_torque_z	    ground_marker_px	    ground_marker_py	    ground_marker_pz	    ground_marker_px	    ground_marker_py	    ground_marker_pz	    ground_marker_px	    ground_marker_py	    ground_marker_pz	    ground_marker_px	    ground_marker_py	    ground_marker_pz	    ground_marker_px	    ground_marker_py	    ground_marker_pz	    ground_marker_px	    ground_marker_py	    ground_marker_pz	    ground_marker_px	    ground_marker_py	    ground_marker_pz	    ground_marker_px	    ground_marker_py	    ground_marker_pz	    ground_marker_px	    ground_marker_py	    ground_marker_pz	    ground_marker_px	    ground_marker_py	    ground_marker_pz	    ground_marker_px	    ground_marker_py	    ground_marker_pz	    ground_marker_px	    ground_marker_py	    ground_marker_pz	    ground_marker_px	    ground_marker_py	    ground_marker_pz	    ground_marker_px	    ground_marker_py	    ground_marker_pz	    ground_marker_px	    ground_marker_py	    ground_marker_pz	    ground_marker_px	    ground_marker_py	    ground_marker_pz	    ground_marker_px	    ground_marker_py	    ground_marker_pz	    ground_marker_px	    ground_marker_py	    ground_marker_pz	    ground_marker_px	    ground_marker_py	    ground_marker_pz	    ground_marker_px	    ground_marker_py	    ground_marker_pz	    ground_marker_px	    ground_marker_py	    ground_marker_pz	    ground_marker_px	    ground_marker_py	    ground_marker_pz	    ground_marker_px	    ground_marker_py	    ground_marker_pz	    ground_marker_px	    ground_marker_py	    ground_marker_pz	    ground_marker_px	    ground_marker_py	    ground_marker_pz	    ground_marker_px	    ground_marker_py	    ground_marker_pz	    ground_marker_px	    ground_marker_py	    ground_marker_pz	    ground_marker_px	    ground_marker_py	    ground_marker_pz	    ground_marker_px	    ground_marker_py	    ground_marker_pz	    ground_marker_px	    ground_marker_py	    ground_marker_pz	    ground_marker_px	    ground_marker_py	    ground_marker_pz	    ground_marker_px	    ground_marker_py	    ground_marker_pz	    ground_marker_px	    ground_marker_py	    ground_marker_pz	    ground_marker_px	    ground_marker_py	    ground_marker_pz	    ground_marker_px	    ground_marker_py	    ground_marker_pz	    ground_marker_px	    ground_marker_py	    ground_marker_pz	    ground_marker_px	    ground_marker_py	    ground_marker_pz	
          0.67500001	          1.97560930	          0.95536101	         -0.25471231	          5.15215731	         -2.71382356	          7.92696190	         20.95796967	          0.23815122	          4.85761404	        -21.19123268	         -4.80181742	          0.00000000	          0.00000000	        -18.03087234	         -6.39462328	          4.22279072	        -28.66173172	         -0.23295999	          0.00000000	          0.00000000	        -20.87709618	          5.84930468	          0.98065168	       -106.48272567	        482.14719795	          4.37436977	          2.13383032	          0.00000000	         -0.18980737	         63.47556104	        215.81488142	         -6.72771314	          1.59263208	          0.00000000	         -0.28012759	          0.00000000	          1.08546436	          0.00000000	          0.00000000	          0.35277612	          0.00000000	          1.90203571	          0.87293518	         -0.24436453	          1.90632093	          0.85966456	         -0.18795837	          1.89113271	          0.85645503	         -0.29339164	          2.08554649	          0.48800728	         -0.20419765	          1.79311597	          0.45368311	         -0.31373292	          2.12131429	          0.07013521	         -0.19211993	          1.50947368	          0.13935216	         -0.29780385	          1.97560930	          0.95536101	         -0.25471231	          1.99039710	          0.95848596	         -0.15205801	          1.96082139	          0.95223600	         -0.35736662	          1.78171420	          0.98004538	         -0.19026373	          1.76938641	          0.98084116	         -0.27487019	          2.09858322	          0.49176279	         -0.14626506	          1.79040325	          0.45733941	         -0.37305847	          2.06620336	          0.49883863	         -0.26335859	          1.80424964	          0.45063990	         -0.26198724	          2.12271357	          0.07135200	         -0.15416519	          1.50296795	          0.14325835	         -0.33656812	          2.11841416	          0.07408155	         -0.22489204	          1.52154851	          0.14810359	         -0.26949200	          1.82327116	          1.43514037	         -0.21376014	          1.93407464	          1.35978520	         -0.14575963	          1.91343129	          1.37121737	         -0.30114588	          1.91099238	          1.36674273	         -0.22567359	          1.95137155	          1.16758299	         -0.25251317	          2.09106660	          0.59779102	         -0.06206561	          1.97409999	          0.54713732	         -0.34183395	          2.08228207	          0.66278118	         -0.13210016	          1.90669727	          0.62328106	         -0.36777934	          2.10705733	          0.58686906	         -0.15937120	          1.88023889	          0.54076290	         -0.36402327	          2.13848019	          0.15139712	         -0.09235860	          1.65918958	          0.15936132	         -0.30906379	          2.10918117	          0.20397788	         -0.15226060	          1.64103663	          0.23961167	         -0.31424913	          2.24422216	          0.04404445	         -0.21697915	          1.58384538	          0.04148009	         -0.28709859	
          0.68333334	          1.98652732	          0.95707804	         -0.25382820	          5.35757685	         -2.96681643	          8.05116558	         20.35100937	          0.75019115	          4.90928650	        -21.82973480	         -3.91875219	          0.00000000	          0.00000000	        -17.43022919	         -6.98103619	          3.47063351	        -30.44441032	         -3.68382859	          0.00000000	          0.00000000	        -20.85662651	          6.27658653	          0.77491087	       -110.36187670	        516.32261665	          2.78926521	          2.13705420	          0.00000000	         -0.19068776	         43.40281746	        151.67417078	         -7.12800225	          1.59624500	          0.00000000	         -0.27848517	          0.00000000	          0.91154547	          0.00000000	          0.00000000	          0.15628589	          0.00000000	          1.91378617	          0.87511826	         -0.24418215	          1.91775060	          0.86141849	         -0.18649480	          1.90229321	          0.85772020	         -0.29187292	          2.09372854	          0.48844957	         -0.20468475	          1.80916882	          0.45336685	         -0.31510428	          2.12165380	          0.07008595	         -0.19227585	          1.52010000	          0.14411378	         -0.29929012	          1.98652732	          0.95707804	         -0.25382820	          2.00156164	          0.96067506	         -0.15133484	          1.97149301	          0.95348102	         -0.35632154	          1.79266191	          0.98125774	         -0.18994555	          1.78008711	          0.98176694	         -0.27456337	          2.10720038	          0.49198481	         -0.14683789	          1.80560386	          0.45759156	         -0.37434694	          2.07506323	          0.50002980	         -0.26365316	          1.82152498	          0.44974098	         -0.26357418	          2.12325335	          0.07131824	         -0.15432954	          1.51267302	          0.14908855	         -0.33776531	          2.11867762	          0.07404504	         -0.22494206	          1.53279769	          0.15287271	         -0.27114046	          1.83334160	          1.43629003	         -0.21265236	          1.94415390	          1.36110425	         -0.14451286	          1.92391741	          1.37279522	         -0.29986718	          1.92127800	          1.36816072	         -0.22444364	          1.96227705	          1.16916800	         -0.25157997	          2.10091448	          0.59837520	         -0.06239324	          1.98912704	          0.54857296	         -0.34489876	          2.09245420	          0.66349590	         -0.13198033	          1.92078102	          0.62413287	         -0.36961889	          2.11667037	          0.58750850	         -0.15949079	          1.89528501	          0.54121584	         -0.36599427	          2.14083028	          0.15098880	         -0.09266871	          1.66990674	          0.16169509	         -0.31399551	          2.11226583	          0.20416661	         -0.15244140	          1.65353036	          0.24242327	         -0.31681097	          2.24469113	          0.04352908	         -0.21710578	          1.58657360	          0.04153985	         -0.28703260	
          0.69166666	          1.99726653	          0.95891666	         -0.25307500	          5.55377722	         -3.18097782	          8.23900604	         19.67588806	          1.15246165	          4.60117245	        -22.33198547	         -2.99733448	          0.00000000	          0.00000000	        -16.69735527	         -7.50854015	          2.69364524	        -32.28182983	         -7.36748886	          0.00000000	          0.00000000	        -20.82615662	          6.65982819	          0.50363320	       -110.31549616	        546.57523538	          0.07996810	          2.13914233	          0.00000000	         -0.19111961	         23.40101946	         99.59311547	         -6.90452373	          1.60238525	          0.00000000	         -0.27573193	          0.00000000	          0.63577228	          0.00000000	          0.00000000	          0.00773889	          0.00000000	          1.92462778	          0.87649500	         -0.24390598	          1.92904925	          0.86326045	         -0.18517010	          1.91321695	          0.85915947	         -0.29047763	          2.10128546	          0.48887673	         -0.20488267	          1.82582307	          0.45301035	         -0.31656894	          2.12180758	          0.07006643	         -0.19222943	          1.53181672	          0.14866918	         -0.30089501	          1.99726653	          0.95891666	         -0.25307500	          2.01264977	          0.96290129	         -0.15075421	          1.98188317	          0.95493203	         -0.35539576	          1.80356073	          0.98260158	         -0.18947430	          1.79063773	          0.98284751	         -0.27404979	          2.11486816	          0.49208009	         -0.14704241	          1.82127416	          0.45778790	         -0.37570211	          2.08344078	          0.50042552	         -0.26334435	          1.83918583	          0.44866663	         -0.26563284	          2.12356806	          0.07129893	         -0.15429026	          1.52354586	          0.15469439	         -0.33904654	          2.11874866	          0.07416023	         -0.22485857	          1.54493201	          0.15726143	         -0.27288046	          1.84332144	          1.43760359	         -0.21166304	          1.95415926	          1.36259294	         -0.14332399	          1.93431115	          1.37450802	         -0.29861033	          1.93148017	          1.36973107	         -0.22325206	          1.97309065	          1.17090058	         -0.25064641	          2.10956693	          0.59847605	         -0.06231814	          2.00425196	          0.55023724	         -0.34835187	          2.10172820	          0.66354877	         -0.13141525	          1.93488395	          0.62513429	         -0.37158114	          2.12543774	          0.58748740	         -0.15895687	          1.91046727	          0.54180580	         -0.36826831	          2.14279413	          0.15061608	         -0.09274029	          1.68151915	          0.16401267	         -0.31888750	          2.11487126	          0.20437969	         -0.15238403	          1.66702378	          0.24521731	         -0.31963611	          2.24491763	          0.04327267	         -0.21720114	          1.58997774	          0.04198561	         -0.28690559	
          0.69999999	          2.00781465	          0.96078432	         -0.25249046	          5.71811008	         -3.35231042	          8.48094654	         18.98891449	          1.44668496	          3.94990110	        -22.74451637	         -2.08089280	          0.00000000	          0.00000000	        -15.82328415	         -7.95171547	          1.90261340	        -34.15943909	        -11.13708115	          0.00000000	          0.00000000	        -20.74444389	          6.99323797	          0.19517767	       -108.56922539	        572.67646616	         -3.32926428	          2.14050684	          0.00000000	         -0.19120306	          8.02156556	         63.13119837	         -6.28323353	          1.61058594	          0.00000000	         -0.27229706	          0.00000000	          0.37101440	          0.00000000	          0.00000000	         -0.04813489	          0.00000000	          1.93459177	          0.87708616	         -0.24344192	          1.94015706	          0.86512035	         -0.18403885	          1.92385995	          0.86071354	         -0.28926310	          2.10838437	          0.48932794	         -0.20489669	          1.84297657	          0.45263463	         -0.31807232	          2.12185454	          0.07005174	         -0.19202383	          1.54450321	          0.15304942	         -0.30257306	          2.00781465	          0.96078432	         -0.25249046	          2.02363420	          0.96506202	         -0.15034981	          1.99199522	          0.95650667	         -0.35463113	          1.81439543	          0.98408830	         -0.18884833	          1.80104184	          0.98405731	         -0.27331248	          2.12175775	          0.49210045	         -0.14698543	          1.83732700	          0.45791930	         -0.37706730	          2.09095001	          0.50054747	         -0.26286283	          1.85728121	          0.44744065	         -0.26759952	          2.12375736	          0.07127750	         -0.15409131	          1.53553438	          0.16002767	         -0.34040317	          2.11887980	          0.07436177	         -0.22467637	          1.55768132	          0.16136718	         -0.27456439	          1.85322535	          1.43896091	         -0.21066709	          1.96412504	          1.36417699	         -0.14222527	          1.94458222	          1.37630832	         -0.29743403	          1.94159997	          1.37138867	         -0.22213949	          1.98387384	          1.17273617	         -0.24980795	          2.11711621	          0.59819907	         -0.06192745	          2.01936913	          0.55209064	         -0.35211122	          2.11041570	          0.66320741	         -0.13054447	          1.94876873	          0.62616652	         -0.37354824	          2.13338590	          0.58694249	         -0.15809016	          1.92556977	          0.54240608	         -0.37055737	          2.14452767	          0.15026256	         -0.09263505	          1.69392359	          0.16626643	         -0.32342190	          2.11719441	          0.20460887	         -0.15211764	          1.68114853	          0.24786694	         -0.32229942	          2.24497128	          0.04312402	         -0.21730204	          1.59428227	          0.04294585	         -0.28675458	
